<svg width="24" height="24" viewBox="0 0 24 24" fill="none" xmlns="http://www.w3.org/2000/svg">
<path d="M7.23748 17.1472L5.17045 19.5157C5.03265 19.1999 4.38498 17.9999 2.89672 15.7262C1.07773 14.3998 0.898592 16.2788 1.03639 17.3841C1.5187 18.0946 2.69002 20.0368 3.51683 22.121C4.34364 24.2052 5.99727 22.0421 6.61738 21.1736C6.41067 21.2526 6.86542 21.0315 11.1648 15.7262C15.0922 11.2261 16.7458 9.56816 22.9469 3.17332C23.2776 1.08907 21.9823 0.883804 21.2933 1.0417C18.8129 3.48911 13.3146 9.14184 11.1648 12.1735C9.51122 14.0682 7.85759 16.2788 7.23748 17.1472Z" fill="black" stroke="black"/>
</svg>
