<svg width="41" height="41" viewBox="0 0 41 41" fill="none" xmlns="http://www.w3.org/2000/svg">
<mask id="path-1-inside-1_49_278" fill="white">
<path d="M34.6202 17.1415L23.1811 5.70233L5.14805 23.7354L16.5872 35.1745L34.6202 17.1415Z"/>
</mask>
<path d="M34.6202 17.1415L23.1811 5.70233L5.14805 23.7354L16.5872 35.1745L34.6202 17.1415Z" fill="#F7AF24"/>
<path d="M34.6202 17.1415L36.0345 15.7273L37.4487 17.1415L36.0345 18.5557L34.6202 17.1415ZM23.1811 5.70233L21.7669 4.28812L23.1811 2.87391L24.5953 4.28812L23.1811 5.70233ZM33.206 18.5557L21.7669 7.11655L24.5953 4.28812L36.0345 15.7273L33.206 18.5557ZM24.5953 7.11655L6.56227 25.1496L3.73384 22.3212L21.7669 4.28812L24.5953 7.11655ZM15.173 33.7603L33.206 15.7273L36.0345 18.5557L18.0014 36.5887L15.173 33.7603Z" fill="black" mask="url(#path-1-inside-1_49_278)"/>
<mask id="path-3-inside-2_49_278" fill="white">
<path d="M37.3735 14.3192L25.9689 2.91452L23.1811 5.70233L34.5857 17.107L37.3735 14.3192Z"/>
</mask>
<path d="M37.3735 14.3192L25.9689 2.91452L23.1811 5.70233L34.5857 17.107L37.3735 14.3192Z" fill="white"/>
<path d="M37.3735 14.3192L38.7877 12.905L40.202 14.3192L38.7877 15.7334L37.3735 14.3192ZM25.9689 2.91452L24.5547 1.50031L25.9689 0.0860956L27.3831 1.50031L25.9689 2.91452ZM35.9593 15.7334L24.5547 4.32874L27.3831 1.50031L38.7877 12.905L35.9593 15.7334ZM27.3831 4.32874L24.5953 7.11654L21.7669 4.28812L24.5547 1.50031L27.3831 4.32874ZM33.1715 15.6928L35.9593 12.905L38.7877 15.7334L35.9999 18.5212L33.1715 15.6928Z" fill="black" mask="url(#path-3-inside-2_49_278)"/>
<mask id="path-5-inside-3_49_278" fill="white">
<path d="M37.3736 14.3192C38.9132 12.7795 38.9132 10.2832 37.3736 8.74357L31.5445 2.91452C30.0049 1.37485 27.5086 1.37486 25.9689 2.91452L37.3736 14.3192Z"/>
</mask>
<path d="M37.3736 14.3192C38.9132 12.7795 38.9132 10.2832 37.3736 8.74357L31.5445 2.91452C30.0049 1.37485 27.5086 1.37486 25.9689 2.91452L37.3736 14.3192Z" fill="#FF4F4F"/>
<path d="M38.7878 15.7334C41.1085 13.4127 41.1085 9.65006 38.7878 7.32935L32.9587 1.5003C30.638 -0.820407 26.8754 -0.820407 24.5547 1.5003L27.3831 4.32873C28.1417 3.57012 29.3717 3.57012 30.1303 4.32873L35.9594 10.1578C36.718 10.9164 36.718 12.1464 35.9594 12.905L38.7878 15.7334ZM25.9689 2.91452L37.3736 14.3192L25.9689 2.91452ZM38.7878 15.7334C41.1085 13.4127 41.1085 9.65006 38.7878 7.32935L35.9594 10.1578C36.718 10.9164 36.718 12.1464 35.9594 12.905L38.7878 15.7334ZM32.9587 1.5003C30.638 -0.820407 26.8754 -0.820407 24.5547 1.5003L27.3831 4.32873C28.1417 3.57012 29.3717 3.57012 30.1303 4.32873L32.9587 1.5003Z" fill="black" mask="url(#path-5-inside-3_49_278)"/>
<path d="M4.16379 37.3796L2.51505 37.8088L2.94416 36.16L5.2359 27.3546L5.6758 25.6644L6.91077 26.8994L13.4244 33.413L14.6594 34.648L12.9692 35.0879L4.16379 37.3796Z" fill="#FFEBB9" stroke="black" stroke-width="2"/>
<path d="M7.5 35.4348L3.54619 36.4538L4.60597 32.5408C6.41469 32.8154 7.0752 33.4151 7.5 35.4348Z" fill="#32343F" stroke="black" stroke-width="2"/>
</svg>
