<svg width="28" height="30" viewBox="0 0 28 30" fill="none" xmlns="http://www.w3.org/2000/svg">
<path d="M14.8572 2.69946C9.50152 -0.313889 6.49876 -0.100989 1.14288 2.69946V18.8846C6.50006 15.8274 9.49999 15.6913 14.8572 18.8846C20.0461 21.9464 22.5953 21.4726 26.8572 18.8846V2.69946C22.6153 5.71884 20.0103 5.7044 14.8572 2.69946Z" fill="#0038FF"/>
<path d="M1.14288 29.9587V18.8846M1.14288 18.8846V2.69946C6.49876 -0.100989 9.50152 -0.313889 14.8572 2.69946C20.0103 5.7044 22.6153 5.71884 26.8572 2.69946V18.8846C22.5953 21.4726 20.0461 21.9464 14.8572 18.8846C9.49999 15.6913 6.50006 15.8274 1.14288 18.8846Z" stroke="#0038FF"/>
</svg>
