<svg width="129" height="22" viewBox="0 0 129 22" fill="none" xmlns="http://www.w3.org/2000/svg">
<mask id="path-1-outside-1_4_14" maskUnits="userSpaceOnUse" x="-2" y="-2" width="133" height="26" fill="black">
<rect fill="white" x="-2" y="-2" width="133" height="26"/>
<path d="M0.714178 4.78658V1.36364H16.8413V4.78658H10.8296V21H6.7259V4.78658H0.714178ZM23.9389 21.2876C22.4495 21.2876 21.1615 20.9712 20.0749 20.3384C18.9946 19.6992 18.1605 18.8107 17.5724 17.6729C16.9843 16.5288 16.6903 15.2024 16.6903 13.6939C16.6903 12.1726 16.9843 10.843 17.5724 9.70526C18.1605 8.56108 18.9946 7.67258 20.0749 7.03977C21.1615 6.40057 22.4495 6.08097 23.9389 6.08097C25.4282 6.08097 26.713 6.40057 27.7933 7.03977C28.8799 7.67258 29.7173 8.56108 30.3054 9.70526C30.8934 10.843 31.1875 12.1726 31.1875 13.6939C31.1875 15.2024 30.8934 16.5288 30.3054 17.6729C29.7173 18.8107 28.8799 19.6992 27.7933 20.3384C26.713 20.9712 25.4282 21.2876 23.9389 21.2876ZM23.9581 18.1236C24.6356 18.1236 25.2013 17.9318 25.6551 17.5483C26.109 17.1584 26.451 16.6278 26.6811 15.9567C26.9176 15.2855 27.0358 14.5217 27.0358 13.6651C27.0358 12.8086 26.9176 12.0447 26.6811 11.3736C26.451 10.7024 26.109 10.1719 25.6551 9.78196C25.2013 9.39204 24.6356 9.19709 23.9581 9.19709C23.2741 9.19709 22.6988 9.39204 22.2322 9.78196C21.772 10.1719 21.4236 10.7024 21.1871 11.3736C20.957 12.0447 20.8419 12.8086 20.8419 13.6651C20.8419 14.5217 20.957 15.2855 21.1871 15.9567C21.4236 16.6278 21.772 17.1584 22.2322 17.5483C22.6988 17.9318 23.2741 18.1236 23.9581 18.1236ZM47.13 21H40.1691V1.36364H47.1875C49.1627 1.36364 50.863 1.75675 52.2884 2.54297C53.7138 3.3228 54.8101 4.4446 55.5771 5.90838C56.3505 7.37216 56.7373 9.12358 56.7373 11.1626C56.7373 13.2081 56.3505 14.9659 55.5771 16.4361C54.8101 17.9062 53.7074 19.0344 52.2692 19.8207C50.8374 20.6069 49.1243 21 47.13 21ZM44.3207 17.4428H46.9574C48.1847 17.4428 49.217 17.2255 50.0544 16.7908C50.8981 16.3498 51.5309 15.669 51.9528 14.7486C52.3811 13.8217 52.5952 12.6264 52.5952 11.1626C52.5952 9.71165 52.3811 8.52592 51.9528 7.60547C51.5309 6.68501 50.9013 6.00746 50.064 5.5728C49.2266 5.13814 48.1943 4.92081 46.967 4.92081H44.3207V17.4428ZM66.39 21.2876C64.9007 21.2876 63.6127 20.9712 62.5261 20.3384C61.4458 19.6992 60.6116 18.8107 60.0236 17.6729C59.4355 16.5288 59.1415 15.2024 59.1415 13.6939C59.1415 12.1726 59.4355 10.843 60.0236 9.70526C60.6116 8.56108 61.4458 7.67258 62.5261 7.03977C63.6127 6.40057 64.9007 6.08097 66.39 6.08097C67.8794 6.08097 69.1642 6.40057 70.2445 7.03977C71.3311 7.67258 72.1685 8.56108 72.7565 9.70526C73.3446 10.843 73.6386 12.1726 73.6386 13.6939C73.6386 15.2024 73.3446 16.5288 72.7565 17.6729C72.1685 18.8107 71.3311 19.6992 70.2445 20.3384C69.1642 20.9712 67.8794 21.2876 66.39 21.2876ZM66.4092 18.1236C67.0868 18.1236 67.6525 17.9318 68.1063 17.5483C68.5601 17.1584 68.9021 16.6278 69.1322 15.9567C69.3687 15.2855 69.487 14.5217 69.487 13.6651C69.487 12.8086 69.3687 12.0447 69.1322 11.3736C68.9021 10.7024 68.5601 10.1719 68.1063 9.78196C67.6525 9.39204 67.0868 9.19709 66.4092 9.19709C65.7253 9.19709 65.15 9.39204 64.6834 9.78196C64.2231 10.1719 63.8748 10.7024 63.6383 11.3736C63.4082 12.0447 63.2931 12.8086 63.2931 13.6651C63.2931 14.5217 63.4082 15.2855 63.6383 15.9567C63.8748 16.6278 64.2231 17.1584 64.6834 17.5483C65.15 17.9318 65.7253 18.1236 66.4092 18.1236ZM82.6203 21V1.36364H86.7719V17.5771H95.1902V21H82.6203ZM97.8629 21V6.27273H101.947V21H97.8629ZM99.9147 4.37429C99.3075 4.37429 98.7865 4.17294 98.3519 3.77024C97.9236 3.36115 97.7095 2.87216 97.7095 2.30327C97.7095 1.74077 97.9236 1.25817 98.3519 0.855469C98.7865 0.446377 99.3075 0.241831 99.9147 0.241831C100.522 0.241831 101.04 0.446377 101.468 0.855469C101.903 1.25817 102.12 1.74077 102.12 2.30327C102.12 2.87216 101.903 3.36115 101.468 3.77024C101.04 4.17294 100.522 4.37429 99.9147 4.37429ZM117.473 10.4723L113.734 10.7024C113.67 10.3828 113.532 10.0952 113.321 9.83949C113.11 9.57741 112.832 9.36967 112.487 9.21626C112.148 9.05646 111.742 8.97656 111.269 8.97656C110.637 8.97656 110.103 9.1108 109.668 9.37926C109.234 9.64133 109.016 9.9929 109.016 10.4339C109.016 10.7855 109.157 11.0827 109.438 11.3256C109.719 11.5685 110.202 11.7635 110.886 11.9105L113.551 12.4474C114.983 12.7415 116.051 13.2145 116.754 13.8665C117.457 14.5185 117.808 15.375 117.808 16.4361C117.808 17.4013 117.524 18.2482 116.955 18.9769C116.393 19.7056 115.619 20.2745 114.635 20.6836C113.657 21.0863 112.529 21.2876 111.25 21.2876C109.301 21.2876 107.747 20.8817 106.59 20.07C105.44 19.2518 104.765 18.1396 104.567 16.7333L108.585 16.5224C108.706 17.1168 109 17.5707 109.467 17.8839C109.933 18.1907 110.531 18.3441 111.26 18.3441C111.976 18.3441 112.551 18.2067 112.986 17.9318C113.427 17.6506 113.65 17.2894 113.657 16.8484C113.65 16.4776 113.494 16.174 113.187 15.9375C112.88 15.6946 112.407 15.5092 111.768 15.3814L109.218 14.8732C107.779 14.5856 106.709 14.087 106.006 13.3775C105.309 12.668 104.96 11.7635 104.96 10.6641C104.96 9.71804 105.216 8.90305 105.727 8.2191C106.245 7.53516 106.971 7.00781 107.904 6.63707C108.844 6.26634 109.943 6.08097 111.202 6.08097C113.062 6.08097 114.526 6.47408 115.594 7.2603C116.667 8.04652 117.294 9.11719 117.473 10.4723ZM128.214 6.27273V9.34091H119.345V6.27273H128.214ZM121.358 2.74432H125.443V16.4744C125.443 16.8516 125.5 17.1456 125.616 17.3565C125.731 17.5611 125.89 17.7049 126.095 17.788C126.306 17.8711 126.549 17.9126 126.824 17.9126C127.015 17.9126 127.207 17.8967 127.399 17.8647C127.591 17.8263 127.738 17.7976 127.84 17.7784L128.482 20.8178C128.278 20.8817 127.99 20.9553 127.619 21.0384C127.249 21.1278 126.798 21.1822 126.268 21.2013C125.283 21.2397 124.42 21.1087 123.679 20.8082C122.944 20.5078 122.372 20.0412 121.962 19.4084C121.553 18.7756 121.352 17.9766 121.358 17.0114V2.74432Z"/>
</mask>
<path d="M0.714178 4.78658V1.36364H16.8413V4.78658H10.8296V21H6.7259V4.78658H0.714178ZM23.9389 21.2876C22.4495 21.2876 21.1615 20.9712 20.0749 20.3384C18.9946 19.6992 18.1605 18.8107 17.5724 17.6729C16.9843 16.5288 16.6903 15.2024 16.6903 13.6939C16.6903 12.1726 16.9843 10.843 17.5724 9.70526C18.1605 8.56108 18.9946 7.67258 20.0749 7.03977C21.1615 6.40057 22.4495 6.08097 23.9389 6.08097C25.4282 6.08097 26.713 6.40057 27.7933 7.03977C28.8799 7.67258 29.7173 8.56108 30.3054 9.70526C30.8934 10.843 31.1875 12.1726 31.1875 13.6939C31.1875 15.2024 30.8934 16.5288 30.3054 17.6729C29.7173 18.8107 28.8799 19.6992 27.7933 20.3384C26.713 20.9712 25.4282 21.2876 23.9389 21.2876ZM23.9581 18.1236C24.6356 18.1236 25.2013 17.9318 25.6551 17.5483C26.109 17.1584 26.451 16.6278 26.6811 15.9567C26.9176 15.2855 27.0358 14.5217 27.0358 13.6651C27.0358 12.8086 26.9176 12.0447 26.6811 11.3736C26.451 10.7024 26.109 10.1719 25.6551 9.78196C25.2013 9.39204 24.6356 9.19709 23.9581 9.19709C23.2741 9.19709 22.6988 9.39204 22.2322 9.78196C21.772 10.1719 21.4236 10.7024 21.1871 11.3736C20.957 12.0447 20.8419 12.8086 20.8419 13.6651C20.8419 14.5217 20.957 15.2855 21.1871 15.9567C21.4236 16.6278 21.772 17.1584 22.2322 17.5483C22.6988 17.9318 23.2741 18.1236 23.9581 18.1236ZM47.13 21H40.1691V1.36364H47.1875C49.1627 1.36364 50.863 1.75675 52.2884 2.54297C53.7138 3.3228 54.8101 4.4446 55.5771 5.90838C56.3505 7.37216 56.7373 9.12358 56.7373 11.1626C56.7373 13.2081 56.3505 14.9659 55.5771 16.4361C54.8101 17.9062 53.7074 19.0344 52.2692 19.8207C50.8374 20.6069 49.1243 21 47.13 21ZM44.3207 17.4428H46.9574C48.1847 17.4428 49.217 17.2255 50.0544 16.7908C50.8981 16.3498 51.5309 15.669 51.9528 14.7486C52.3811 13.8217 52.5952 12.6264 52.5952 11.1626C52.5952 9.71165 52.3811 8.52592 51.9528 7.60547C51.5309 6.68501 50.9013 6.00746 50.064 5.5728C49.2266 5.13814 48.1943 4.92081 46.967 4.92081H44.3207V17.4428ZM66.39 21.2876C64.9007 21.2876 63.6127 20.9712 62.5261 20.3384C61.4458 19.6992 60.6116 18.8107 60.0236 17.6729C59.4355 16.5288 59.1415 15.2024 59.1415 13.6939C59.1415 12.1726 59.4355 10.843 60.0236 9.70526C60.6116 8.56108 61.4458 7.67258 62.5261 7.03977C63.6127 6.40057 64.9007 6.08097 66.39 6.08097C67.8794 6.08097 69.1642 6.40057 70.2445 7.03977C71.3311 7.67258 72.1685 8.56108 72.7565 9.70526C73.3446 10.843 73.6386 12.1726 73.6386 13.6939C73.6386 15.2024 73.3446 16.5288 72.7565 17.6729C72.1685 18.8107 71.3311 19.6992 70.2445 20.3384C69.1642 20.9712 67.8794 21.2876 66.39 21.2876ZM66.4092 18.1236C67.0868 18.1236 67.6525 17.9318 68.1063 17.5483C68.5601 17.1584 68.9021 16.6278 69.1322 15.9567C69.3687 15.2855 69.487 14.5217 69.487 13.6651C69.487 12.8086 69.3687 12.0447 69.1322 11.3736C68.9021 10.7024 68.5601 10.1719 68.1063 9.78196C67.6525 9.39204 67.0868 9.19709 66.4092 9.19709C65.7253 9.19709 65.15 9.39204 64.6834 9.78196C64.2231 10.1719 63.8748 10.7024 63.6383 11.3736C63.4082 12.0447 63.2931 12.8086 63.2931 13.6651C63.2931 14.5217 63.4082 15.2855 63.6383 15.9567C63.8748 16.6278 64.2231 17.1584 64.6834 17.5483C65.15 17.9318 65.7253 18.1236 66.4092 18.1236ZM82.6203 21V1.36364H86.7719V17.5771H95.1902V21H82.6203ZM97.8629 21V6.27273H101.947V21H97.8629ZM99.9147 4.37429C99.3075 4.37429 98.7865 4.17294 98.3519 3.77024C97.9236 3.36115 97.7095 2.87216 97.7095 2.30327C97.7095 1.74077 97.9236 1.25817 98.3519 0.855469C98.7865 0.446377 99.3075 0.241831 99.9147 0.241831C100.522 0.241831 101.04 0.446377 101.468 0.855469C101.903 1.25817 102.12 1.74077 102.12 2.30327C102.12 2.87216 101.903 3.36115 101.468 3.77024C101.04 4.17294 100.522 4.37429 99.9147 4.37429ZM117.473 10.4723L113.734 10.7024C113.67 10.3828 113.532 10.0952 113.321 9.83949C113.11 9.57741 112.832 9.36967 112.487 9.21626C112.148 9.05646 111.742 8.97656 111.269 8.97656C110.637 8.97656 110.103 9.1108 109.668 9.37926C109.234 9.64133 109.016 9.9929 109.016 10.4339C109.016 10.7855 109.157 11.0827 109.438 11.3256C109.719 11.5685 110.202 11.7635 110.886 11.9105L113.551 12.4474C114.983 12.7415 116.051 13.2145 116.754 13.8665C117.457 14.5185 117.808 15.375 117.808 16.4361C117.808 17.4013 117.524 18.2482 116.955 18.9769C116.393 19.7056 115.619 20.2745 114.635 20.6836C113.657 21.0863 112.529 21.2876 111.25 21.2876C109.301 21.2876 107.747 20.8817 106.59 20.07C105.44 19.2518 104.765 18.1396 104.567 16.7333L108.585 16.5224C108.706 17.1168 109 17.5707 109.467 17.8839C109.933 18.1907 110.531 18.3441 111.26 18.3441C111.976 18.3441 112.551 18.2067 112.986 17.9318C113.427 17.6506 113.65 17.2894 113.657 16.8484C113.65 16.4776 113.494 16.174 113.187 15.9375C112.88 15.6946 112.407 15.5092 111.768 15.3814L109.218 14.8732C107.779 14.5856 106.709 14.087 106.006 13.3775C105.309 12.668 104.96 11.7635 104.96 10.6641C104.96 9.71804 105.216 8.90305 105.727 8.2191C106.245 7.53516 106.971 7.00781 107.904 6.63707C108.844 6.26634 109.943 6.08097 111.202 6.08097C113.062 6.08097 114.526 6.47408 115.594 7.2603C116.667 8.04652 117.294 9.11719 117.473 10.4723ZM128.214 6.27273V9.34091H119.345V6.27273H128.214ZM121.358 2.74432H125.443V16.4744C125.443 16.8516 125.5 17.1456 125.616 17.3565C125.731 17.5611 125.89 17.7049 126.095 17.788C126.306 17.8711 126.549 17.9126 126.824 17.9126C127.015 17.9126 127.207 17.8967 127.399 17.8647C127.591 17.8263 127.738 17.7976 127.84 17.7784L128.482 20.8178C128.278 20.8817 127.99 20.9553 127.619 21.0384C127.249 21.1278 126.798 21.1822 126.268 21.2013C125.283 21.2397 124.42 21.1087 123.679 20.8082C122.944 20.5078 122.372 20.0412 121.962 19.4084C121.553 18.7756 121.352 17.9766 121.358 17.0114V2.74432Z" fill="white"/>
<path d="M0.714178 4.78658H-1.28582V6.78658H0.714178V4.78658ZM0.714178 1.36364V-0.636364H-1.28582V1.36364H0.714178ZM16.8413 1.36364H18.8413V-0.636364H16.8413V1.36364ZM16.8413 4.78658V6.78658H18.8413V4.78658H16.8413ZM10.8296 4.78658V2.78658H8.82959V4.78658H10.8296ZM10.8296 21V23H12.8296V21H10.8296ZM6.7259 21H4.7259V23H6.7259V21ZM6.7259 4.78658H8.7259V2.78658H6.7259V4.78658ZM2.71418 4.78658V1.36364H-1.28582V4.78658H2.71418ZM0.714178 3.36364H16.8413V-0.636364H0.714178V3.36364ZM14.8413 1.36364V4.78658H18.8413V1.36364H14.8413ZM16.8413 2.78658H10.8296V6.78658H16.8413V2.78658ZM8.82959 4.78658V21H12.8296V4.78658H8.82959ZM10.8296 19H6.7259V23H10.8296V19ZM8.7259 21V4.78658H4.7259V21H8.7259ZM6.7259 2.78658H0.714178V6.78658H6.7259V2.78658ZM20.0749 20.3384L19.0564 22.0597L19.0684 22.0667L20.0749 20.3384ZM17.5724 17.6729L15.7936 18.5872L15.7957 18.5912L17.5724 17.6729ZM17.5724 9.70526L19.3491 10.6236L19.3512 10.6195L17.5724 9.70526ZM20.0749 7.03977L21.0858 8.76548L21.0889 8.76364L20.0749 7.03977ZM27.7933 7.03977L26.7748 8.76106L26.7868 8.76807L27.7933 7.03977ZM30.3054 9.70526L28.5265 10.6195L28.5286 10.6236L30.3054 9.70526ZM30.3054 17.6729L32.0821 18.5912L32.0842 18.5872L30.3054 17.6729ZM27.7933 20.3384L28.8042 22.0641L28.8073 22.0623L27.7933 20.3384ZM25.6551 17.5483L26.9461 19.0759L26.9523 19.0706L26.9585 19.0653L25.6551 17.5483ZM26.6811 15.9567L24.7948 15.292L24.7919 15.3L24.7892 15.308L26.6811 15.9567ZM26.6811 11.3736L24.7892 12.0222L24.7919 12.0303L24.7948 12.0383L26.6811 11.3736ZM22.2322 9.78196L20.9497 8.24721L20.9394 8.25599L22.2322 9.78196ZM21.1871 11.3736L19.3008 10.7089L19.298 10.7169L19.2952 10.7249L21.1871 11.3736ZM21.1871 15.9567L19.2952 16.6053L19.298 16.6134L19.3008 16.6214L21.1871 15.9567ZM22.2322 17.5483L20.9394 19.0743L20.9507 19.0839L20.9623 19.0934L22.2322 17.5483ZM23.9389 19.2876C22.7376 19.2876 21.8104 19.0347 21.0814 18.6101L19.0684 22.0667C20.5127 22.9078 22.1615 23.2876 23.9389 23.2876V19.2876ZM21.0934 18.6172C20.3431 18.1732 19.7685 17.5661 19.3491 16.7546L15.7957 18.5912C16.5524 20.0554 17.6462 21.2252 19.0564 22.0597L21.0934 18.6172ZM19.3512 16.7587C18.9316 15.9424 18.6903 14.9392 18.6903 13.6939H14.6903C14.6903 15.4656 15.037 17.1151 15.7936 18.5872L19.3512 16.7587ZM18.6903 13.6939C18.6903 12.4324 18.9329 11.4288 19.3491 10.6236L15.7957 8.78695C15.0357 10.2573 14.6903 11.9128 14.6903 13.6939H18.6903ZM19.3512 10.6195C19.7706 9.80343 20.3428 9.20072 21.0858 8.76547L19.064 5.31407C17.6465 6.14444 16.5503 7.31873 15.7936 8.79101L19.3512 10.6195ZM21.0889 8.76364C21.8165 8.33563 22.741 8.08097 23.9389 8.08097V4.08097C22.1581 4.08097 20.5065 4.46551 19.0608 5.3159L21.0889 8.76364ZM23.9389 8.08097C25.1372 8.08097 26.0561 8.33576 26.7748 8.76102L28.8118 5.31853C27.3699 4.46538 25.7193 4.08097 23.9389 4.08097V8.08097ZM26.7868 8.76807C27.5357 9.20416 28.1087 9.80654 28.5265 10.6195L32.0842 8.79101C31.3259 7.31561 30.2242 6.14101 28.7998 5.31148L26.7868 8.76807ZM28.5286 10.6236C28.9448 11.4288 29.1875 12.4324 29.1875 13.6939H33.1875C33.1875 11.9128 32.842 10.2573 32.0821 8.78695L28.5286 10.6236ZM29.1875 13.6939C29.1875 14.9392 28.9461 15.9424 28.5265 16.7587L32.0842 18.5872C32.8407 17.1151 33.1875 15.4656 33.1875 13.6939H29.1875ZM28.5286 16.7546C28.1108 17.563 27.5354 18.1698 26.7792 18.6146L28.8073 22.0623C30.2245 21.2287 31.3237 20.0585 32.0821 18.5912L28.5286 16.7546ZM26.7824 18.6127C26.0623 19.0345 25.1406 19.2876 23.9389 19.2876V23.2876C25.7159 23.2876 27.3637 22.9079 28.8042 22.0641L26.7824 18.6127ZM23.9581 20.1236C25.0379 20.1236 26.0809 19.807 26.9461 19.0759L24.3642 16.0207C24.3217 16.0567 24.2333 16.1236 23.9581 16.1236V20.1236ZM26.9585 19.0653C27.7286 18.4036 28.249 17.5502 28.573 16.6053L24.7892 15.308C24.6529 15.7055 24.4893 15.9131 24.3518 16.0313L26.9585 19.0653ZM28.5674 16.6214C28.8927 15.6982 29.0358 14.7033 29.0358 13.6651H25.0358C25.0358 14.34 24.9425 14.8728 24.7948 15.292L28.5674 16.6214ZM29.0358 13.6651C29.0358 12.6269 28.8927 11.632 28.5674 10.7089L24.7948 12.0383C24.9425 12.4574 25.0358 12.9903 25.0358 13.6651H29.0358ZM28.573 10.7249C28.249 9.78005 27.7286 8.92663 26.9585 8.26496L24.3518 11.299C24.4893 11.4171 24.6529 11.6248 24.7892 12.0222L28.573 10.7249ZM26.9585 8.26496C26.0938 7.52209 25.0464 7.19709 23.9581 7.19709V11.1971C24.2248 11.1971 24.3088 11.262 24.3518 11.299L26.9585 8.26496ZM23.9581 7.19709C22.8675 7.19709 21.8211 7.51912 20.9498 8.24724L23.5146 11.3167C23.5765 11.265 23.6807 11.1971 23.9581 11.1971V7.19709ZM20.9394 8.25599C20.1633 8.91351 19.6339 9.76366 19.3008 10.7089L23.0734 12.0383C23.2133 11.6412 23.3807 11.4302 23.525 11.3079L20.9394 8.25599ZM19.2952 10.7249C18.9804 11.643 18.8419 12.6322 18.8419 13.6651H22.8419C22.8419 12.985 22.9335 12.4465 23.079 12.0222L19.2952 10.7249ZM18.8419 13.6651C18.8419 14.6981 18.9804 15.6873 19.2952 16.6053L23.079 15.308C22.9335 14.8838 22.8419 14.3452 22.8419 13.6651H18.8419ZM19.3008 16.6214C19.6339 17.5666 20.1633 18.4167 20.9394 19.0743L23.525 16.0223C23.3807 15.9 23.2133 15.6891 23.0734 15.292L19.3008 16.6214ZM20.9623 19.0934C21.8339 19.8098 22.8758 20.1236 23.9581 20.1236V16.1236C23.6724 16.1236 23.5638 16.0539 23.5021 16.0032L20.9623 19.0934ZM40.1691 21H38.1691V23H40.1691V21ZM40.1691 1.36364V-0.636364H38.1691V1.36364H40.1691ZM52.2884 2.54297L51.3224 4.29425L51.3285 4.29756L52.2884 2.54297ZM55.5771 5.90838L53.8056 6.83669L53.8088 6.84274L55.5771 5.90838ZM55.5771 16.4361L53.8071 15.5049L53.8039 15.5109L55.5771 16.4361ZM52.2692 19.8207L51.3099 18.0658L51.3066 18.0676L52.2692 19.8207ZM44.3207 17.4428H42.3207V19.4428H44.3207V17.4428ZM50.0544 16.7908L50.9758 18.5659L50.9809 18.5633L50.0544 16.7908ZM51.9528 14.7486L50.1373 13.9097L50.1347 13.9153L51.9528 14.7486ZM51.9528 7.60547L50.1347 8.43879L50.1395 8.44917L51.9528 7.60547ZM50.064 5.5728L50.9854 3.7977L50.9854 3.7977L50.064 5.5728ZM44.3207 4.92081V2.92081H42.3207V4.92081H44.3207ZM47.13 19H40.1691V23H47.13V19ZM42.1691 21V1.36364H38.1691V21H42.1691ZM40.1691 3.36364H47.1875V-0.636364H40.1691V3.36364ZM47.1875 3.36364C48.8965 3.36364 50.2498 3.70258 51.3224 4.29424L53.2543 0.791699C51.4762 -0.189089 49.4289 -0.636364 47.1875 -0.636364V3.36364ZM51.3285 4.29756C52.4016 4.88462 53.2183 5.716 53.8056 6.83668L57.3486 4.98008C56.4018 3.1732 55.0261 1.76097 53.2483 0.788381L51.3285 4.29756ZM53.8088 6.84274C54.3988 7.95931 54.7373 9.37489 54.7373 11.1626H58.7373C58.7373 8.87227 58.3023 6.785 57.3454 4.97402L53.8088 6.84274ZM54.7373 11.1626C54.7373 12.9576 54.3984 14.3809 53.8071 15.5049L57.3471 17.3673C58.3026 15.5509 58.7373 13.4586 58.7373 11.1626H54.7373ZM53.8039 15.5109C53.2178 16.6344 52.3964 17.4718 51.3099 18.0658L53.2286 21.5756C55.0185 20.5971 56.4024 19.1781 57.3503 17.3612L53.8039 15.5109ZM51.3066 18.0676C50.2282 18.6597 48.8615 19 47.13 19V23C49.3872 23 51.4466 22.5541 53.2319 21.5738L51.3066 18.0676ZM44.3207 19.4428H46.9574V15.4428H44.3207V19.4428ZM46.9574 19.4428C48.4122 19.4428 49.7811 19.1861 50.9758 18.5659L49.133 15.0157C48.6529 15.2649 47.9573 15.4428 46.9574 15.4428V19.4428ZM50.9809 18.5633C52.2437 17.9032 53.1768 16.8782 53.7709 15.5819L50.1347 13.9153C49.8851 14.4599 49.5526 14.7964 49.1279 15.0184L50.9809 18.5633ZM53.7684 15.5875C54.359 14.3093 54.5952 12.7997 54.5952 11.1626H50.5952C50.5952 12.4531 50.4032 13.3342 50.1373 13.9097L53.7684 15.5875ZM54.5952 11.1626C54.5952 9.53629 54.3584 8.03469 53.7661 6.76177L50.1395 8.44917C50.4038 9.01716 50.5952 9.88701 50.5952 11.1626H54.5952ZM53.7709 6.77216C53.1779 5.47832 52.2481 4.45313 50.9854 3.7977L49.1425 7.3479C49.5546 7.56178 49.8839 7.8917 50.1347 8.43878L53.7709 6.77216ZM50.9854 3.7977C49.7907 3.17757 48.4217 2.92081 46.967 2.92081V6.92081C47.9668 6.92081 48.6625 7.09871 49.1425 7.3479L50.9854 3.7977ZM46.967 2.92081H44.3207V6.92081H46.967V2.92081ZM42.3207 4.92081V17.4428H46.3207V4.92081H42.3207ZM62.5261 20.3384L61.5075 22.0597L61.5196 22.0667L62.5261 20.3384ZM60.0236 17.6729L58.2448 18.5872L58.2469 18.5912L60.0236 17.6729ZM60.0236 9.70526L61.8003 10.6236L61.8024 10.6195L60.0236 9.70526ZM62.5261 7.03977L63.537 8.76548L63.5401 8.76364L62.5261 7.03977ZM70.2445 7.03977L69.2259 8.76106L69.238 8.76807L70.2445 7.03977ZM72.7565 9.70526L70.9777 10.6195L70.9798 10.6236L72.7565 9.70526ZM72.7565 17.6729L74.5332 18.5912L74.5353 18.5872L72.7565 17.6729ZM70.2445 20.3384L71.2554 22.0641L71.2585 22.0623L70.2445 20.3384ZM68.1063 17.5483L69.3972 19.0759L69.4035 19.0706L69.4097 19.0653L68.1063 17.5483ZM69.1322 15.9567L67.2459 15.292L67.2431 15.3L67.2403 15.308L69.1322 15.9567ZM69.1322 11.3736L67.2403 12.0222L67.2431 12.0303L67.2459 12.0383L69.1322 11.3736ZM64.6834 9.78196L63.4009 8.24721L63.3905 8.25599L64.6834 9.78196ZM63.6383 11.3736L61.752 10.7089L61.7491 10.7169L61.7464 10.7249L63.6383 11.3736ZM63.6383 15.9567L61.7464 16.6053L61.7491 16.6134L61.752 16.6214L63.6383 15.9567ZM64.6834 17.5483L63.3905 19.0743L63.4019 19.0839L63.4134 19.0934L64.6834 17.5483ZM66.39 19.2876C65.1887 19.2876 64.2615 19.0347 63.5325 18.6101L61.5196 22.0667C62.9639 22.9078 64.6127 23.2876 66.39 23.2876V19.2876ZM63.5445 18.6172C62.7943 18.1732 62.2197 17.5661 61.8003 16.7546L58.2469 18.5912C59.0036 20.0554 60.0973 21.2252 61.5076 22.0597L63.5445 18.6172ZM61.8024 16.7587C61.3828 15.9424 61.1415 14.9392 61.1415 13.6939H57.1415C57.1415 15.4656 57.4882 17.1151 58.2448 18.5872L61.8024 16.7587ZM61.1415 13.6939C61.1415 12.4324 61.3841 11.4288 61.8003 10.6236L58.2469 8.78695C57.4869 10.2573 57.1415 11.9128 57.1415 13.6939H61.1415ZM61.8024 10.6195C62.2218 9.80343 62.794 9.20072 63.537 8.76547L61.5151 5.31407C60.0976 6.14444 59.0015 7.31873 58.2448 8.79101L61.8024 10.6195ZM63.5401 8.76364C64.2677 8.33563 65.1921 8.08097 66.39 8.08097V4.08097C64.6093 4.08097 62.9577 4.46551 61.512 5.3159L63.5401 8.76364ZM66.39 8.08097C67.5883 8.08097 68.5073 8.33576 69.226 8.76102L71.2629 5.31853C69.8211 4.46538 68.1704 4.08097 66.39 4.08097V8.08097ZM69.238 8.76807C69.9868 9.20416 70.5599 9.80654 70.9777 10.6195L74.5353 8.79101C73.777 7.31561 72.6754 6.14101 71.2509 5.31148L69.238 8.76807ZM70.9798 10.6236C71.396 11.4288 71.6386 12.4324 71.6386 13.6939H75.6386C75.6386 11.9128 75.2932 10.2573 74.5332 8.78695L70.9798 10.6236ZM71.6386 13.6939C71.6386 14.9392 71.3973 15.9424 70.9777 16.7587L74.5353 18.5872C75.2919 17.1151 75.6386 15.4656 75.6386 13.6939H71.6386ZM70.9798 16.7546C70.562 17.563 69.9865 18.1698 69.2304 18.6146L71.2585 22.0623C72.6757 21.2287 73.7749 20.0585 74.5332 18.5912L70.9798 16.7546ZM69.2335 18.6127C68.5135 19.0345 67.5918 19.2876 66.39 19.2876V23.2876C68.167 23.2876 69.8149 22.9079 71.2554 22.0641L69.2335 18.6127ZM66.4092 20.1236C67.4891 20.1236 68.5321 19.807 69.3972 19.0759L66.8154 16.0207C66.7728 16.0567 66.6845 16.1236 66.4092 16.1236V20.1236ZM69.4097 19.0653C70.1798 18.4036 70.7002 17.5502 71.0241 16.6053L67.2403 15.308C67.1041 15.7055 66.9405 15.9131 66.803 16.0313L69.4097 19.0653ZM71.0185 16.6214C71.3439 15.6982 71.487 14.7033 71.487 13.6651H67.487C67.487 14.34 67.3936 14.8728 67.2459 15.292L71.0185 16.6214ZM71.487 13.6651C71.487 12.6269 71.3439 11.632 71.0185 10.7089L67.2459 12.0383C67.3936 12.4574 67.487 12.9903 67.487 13.6651H71.487ZM71.0241 10.7249C70.7002 9.78005 70.1798 8.92663 69.4097 8.26496L66.803 11.299C66.9405 11.4171 67.1041 11.6248 67.2403 12.0222L71.0241 10.7249ZM69.4097 8.26496C68.545 7.52209 67.4975 7.19709 66.4092 7.19709V11.1971C66.676 11.1971 66.76 11.262 66.803 11.299L69.4097 8.26496ZM66.4092 7.19709C65.3187 7.19709 64.2723 7.51912 63.4009 8.24724L65.9658 11.3167C66.0277 11.265 66.1319 11.1971 66.4092 11.1971V7.19709ZM63.3905 8.25599C62.6144 8.91351 62.085 9.76366 61.752 10.7089L65.5246 12.0383C65.6645 11.6412 65.8318 11.4302 65.9762 11.3079L63.3905 8.25599ZM61.7464 10.7249C61.4316 11.643 61.2931 12.6322 61.2931 13.6651H65.2931C65.2931 12.985 65.3847 12.4465 65.5302 12.0222L61.7464 10.7249ZM61.2931 13.6651C61.2931 14.6981 61.4316 15.6873 61.7464 16.6053L65.5302 15.308C65.3847 14.8838 65.2931 14.3452 65.2931 13.6651H61.2931ZM61.752 16.6214C62.085 17.5666 62.6144 18.4167 63.3905 19.0743L65.9762 16.0223C65.8318 15.9 65.6645 15.6891 65.5246 15.292L61.752 16.6214ZM63.4134 19.0934C64.2851 19.8098 65.327 20.1236 66.4092 20.1236V16.1236C66.1236 16.1236 66.0149 16.0539 65.9533 16.0032L63.4134 19.0934ZM82.6203 21H80.6203V23H82.6203V21ZM82.6203 1.36364V-0.636364H80.6203V1.36364H82.6203ZM86.7719 1.36364H88.7719V-0.636364H86.7719V1.36364ZM86.7719 17.5771H84.7719V19.5771H86.7719V17.5771ZM95.1902 17.5771H97.1902V15.5771H95.1902V17.5771ZM95.1902 21V23H97.1902V21H95.1902ZM84.6203 21V1.36364H80.6203V21H84.6203ZM82.6203 3.36364H86.7719V-0.636364H82.6203V3.36364ZM84.7719 1.36364V17.5771H88.7719V1.36364H84.7719ZM86.7719 19.5771H95.1902V15.5771H86.7719V19.5771ZM93.1902 17.5771V21H97.1902V17.5771H93.1902ZM95.1902 19H82.6203V23H95.1902V19ZM97.8629 21H95.8629V23H97.8629V21ZM97.8629 6.27273V4.27273H95.8629V6.27273H97.8629ZM101.947 6.27273H103.947V4.27273H101.947V6.27273ZM101.947 21V23H103.947V21H101.947ZM98.3519 3.77024L96.9704 5.21646L96.9814 5.227L96.9926 5.23736L98.3519 3.77024ZM98.3519 0.855469L99.7219 2.31251L99.7226 2.31187L98.3519 0.855469ZM101.468 0.855469L100.087 2.30169L100.098 2.31223L100.109 2.32259L101.468 0.855469ZM101.468 3.77024L102.838 5.22728L102.839 5.22664L101.468 3.77024ZM99.8629 21V6.27273H95.8629V21H99.8629ZM97.8629 8.27273H101.947V4.27273H97.8629V8.27273ZM99.9474 6.27273V21H103.947V6.27273H99.9474ZM101.947 19H97.8629V23H101.947V19ZM99.9147 2.37429C99.8361 2.37429 99.8008 2.36208 99.7896 2.35777C99.7793 2.35378 99.7543 2.34309 99.7111 2.30312L96.9926 5.23736C97.8071 5.99192 98.8173 6.37429 99.9147 6.37429V2.37429ZM99.7333 2.32402C99.7102 2.30188 99.7 2.2884 99.6975 2.28487C99.6953 2.28172 99.6981 2.28514 99.7021 2.29441C99.7062 2.30381 99.7087 2.31261 99.7099 2.31817C99.7109 2.32339 99.7095 2.3194 99.7095 2.30327H95.7095C95.7095 3.44319 96.1653 4.44742 96.9704 5.21646L99.7333 2.32402ZM99.7095 2.30327C99.7095 2.29018 99.7106 2.28938 99.7089 2.29782C99.7081 2.30176 99.7068 2.30693 99.7049 2.31294C99.703 2.31897 99.7007 2.32495 99.6982 2.3306C99.6957 2.33623 99.6933 2.34069 99.6915 2.34381C99.6897 2.34691 99.6889 2.34801 99.6896 2.34708C99.6908 2.34543 99.6997 2.33343 99.7219 2.31251L96.9818 -0.601571C96.172 0.159937 95.7095 1.1616 95.7095 2.30327H99.7095ZM99.7226 2.31187C99.7669 2.27018 99.7916 2.25999 99.7995 2.25688C99.8081 2.25354 99.8399 2.24183 99.9147 2.24183V-1.75817C98.8078 -1.75817 97.7939 -1.36587 96.9811 -0.60093L99.7226 2.31187ZM99.9147 2.24183C99.9897 2.24183 100.019 2.25357 100.024 2.25534C100.027 2.25676 100.047 2.26403 100.087 2.30169L102.849 -0.590751C102.039 -1.36516 101.022 -1.75817 99.9147 -1.75817V2.24183ZM100.109 2.32259C100.132 2.34425 100.142 2.35673 100.143 2.35848C100.144 2.35944 100.143 2.35827 100.141 2.35495C100.139 2.35161 100.136 2.3468 100.133 2.34067C100.131 2.33453 100.128 2.32793 100.126 2.32117C100.124 2.31442 100.122 2.30842 100.121 2.30356C100.119 2.29327 100.12 2.29211 100.12 2.30327H104.12C104.12 1.15123 103.646 0.146793 102.827 -0.611655L100.109 2.32259ZM100.12 2.30327C100.12 2.31749 100.119 2.31954 100.12 2.31248C100.121 2.30923 100.122 2.30481 100.124 2.29958C100.125 2.29434 100.127 2.28918 100.129 2.2844C100.131 2.27963 100.133 2.27607 100.135 2.27388C100.136 2.27172 100.136 2.27158 100.135 2.27347C100.132 2.27706 100.122 2.29099 100.097 2.31384L102.839 5.22664C103.653 4.46051 104.12 3.4534 104.12 2.30327H100.12ZM100.098 2.3132C100.06 2.34913 100.04 2.35694 100.034 2.35927C100.026 2.36204 99.9935 2.37429 99.9147 2.37429V6.37429C101.013 6.37429 102.026 5.99128 102.838 5.22728L100.098 2.3132ZM117.473 10.4723L117.596 12.4685L119.736 12.3368L119.456 10.2104L117.473 10.4723ZM113.734 10.7024L111.772 11.0946L112.115 12.8058L113.856 12.6986L113.734 10.7024ZM113.321 9.83949L111.763 11.0935L111.771 11.1029L111.778 11.1123L113.321 9.83949ZM112.487 9.21626L111.634 11.0251L111.654 11.0347L111.675 11.0439L112.487 9.21626ZM109.668 9.37926L110.701 11.092L110.71 11.0865L110.719 11.0809L109.668 9.37926ZM109.438 11.3256L108.131 12.8393L108.131 12.8393L109.438 11.3256ZM110.886 11.9105L110.466 13.8658L110.478 13.8686L110.491 13.8711L110.886 11.9105ZM113.551 12.4474L113.954 10.4883L113.946 10.4868L113.551 12.4474ZM116.754 13.8665L115.394 15.333L115.394 15.333L116.754 13.8665ZM116.955 18.9769L115.379 17.7461L115.372 17.7548L116.955 18.9769ZM114.635 20.6836L115.396 22.533L115.402 22.5305L114.635 20.6836ZM106.59 20.07L105.431 21.6999L105.442 21.7071L106.59 20.07ZM104.567 16.7333L104.462 14.7361L102.282 14.8505L102.587 17.0124L104.567 16.7333ZM108.585 16.5224L110.544 16.122L110.2 14.4348L108.48 14.5251L108.585 16.5224ZM109.467 17.8839L108.352 19.5445L108.36 19.5498L108.368 19.555L109.467 17.8839ZM112.986 17.9318L114.055 19.6222L114.061 19.6181L112.986 17.9318ZM113.657 16.8484L115.657 16.8773L115.657 16.8456L115.657 16.8139L113.657 16.8484ZM113.187 15.9375L111.946 17.5056L111.956 17.5136L111.966 17.5215L113.187 15.9375ZM111.768 15.3814L112.16 13.4202L112.159 13.4199L111.768 15.3814ZM109.218 14.8732L108.825 16.8344L108.827 16.8347L109.218 14.8732ZM106.006 13.3775L104.579 14.7788L104.585 14.7853L106.006 13.3775ZM105.727 8.2191L104.133 7.01194L104.126 7.0215L105.727 8.2191ZM107.904 6.63707L107.17 4.77664L107.166 4.77837L107.904 6.63707ZM115.594 7.2603L114.408 8.87066L114.412 8.87402L115.594 7.2603ZM117.35 8.47608L113.611 8.70619L113.856 12.6986L117.596 12.4685L117.35 8.47608ZM115.695 10.3102C115.565 9.66137 115.281 9.0724 114.864 8.56672L111.778 11.1123C111.782 11.1163 111.783 11.1178 111.782 11.1168C111.781 11.1157 111.78 11.1131 111.778 11.1092C111.776 11.1053 111.775 11.1015 111.773 11.0982C111.772 11.0949 111.772 11.0935 111.772 11.0946L115.695 10.3102ZM114.879 8.58547C114.446 8.04657 113.899 7.65518 113.299 7.38864L111.675 11.0439C111.723 11.0653 111.748 11.0822 111.757 11.0893C111.766 11.0959 111.766 11.0973 111.763 11.0935L114.879 8.58547ZM113.34 7.4074C112.674 7.09317 111.962 6.97656 111.269 6.97656V10.9766C111.523 10.9766 111.622 11.0198 111.634 11.0251L113.34 7.4074ZM111.269 6.97656C110.354 6.97656 109.435 7.17239 108.617 7.67766L110.719 11.0809C110.77 11.0492 110.919 10.9766 111.269 10.9766V6.97656ZM108.635 7.6665C107.708 8.22577 107.016 9.17499 107.016 10.4339H111.016C111.016 10.5589 110.98 10.7295 110.88 10.8911C110.788 11.0405 110.695 11.0958 110.701 11.092L108.635 7.6665ZM107.016 10.4339C107.016 11.4035 107.438 12.2411 108.131 12.8393L110.745 9.81199C110.788 9.849 110.866 9.93106 110.93 10.0652C110.994 10.2022 111.016 10.3348 111.016 10.4339H107.016ZM108.131 12.8393C108.804 13.4204 109.696 13.7004 110.466 13.8658L111.306 9.95517C111.041 9.89816 110.866 9.84231 110.76 9.79963C110.647 9.75403 110.668 9.74524 110.745 9.81199L108.131 12.8393ZM110.491 13.8711L113.156 14.4081L113.946 10.4868L111.281 9.94989L110.491 13.8711ZM113.149 14.4066C114.396 14.6627 115.064 15.0275 115.394 15.333L118.114 12.3999C117.037 11.4015 115.57 10.8203 113.954 10.4883L113.149 14.4066ZM115.394 15.333C115.643 15.564 115.808 15.8658 115.808 16.4361H119.808C119.808 14.8842 119.271 13.473 118.114 12.3999L115.394 15.333ZM115.808 16.4361C115.808 16.9764 115.66 17.3853 115.379 17.7462L118.532 20.2077C119.388 19.1111 119.808 17.8261 119.808 16.4361H115.808ZM115.372 17.7548C115.054 18.1668 114.581 18.54 113.867 18.8367L115.402 22.5305C116.657 22.009 117.731 21.2444 118.538 20.199L115.372 17.7548ZM113.873 18.8342C113.182 19.119 112.321 19.2876 111.25 19.2876V23.2876C112.737 23.2876 114.132 23.0535 115.396 22.533L113.873 18.8342ZM111.25 19.2876C109.56 19.2876 108.454 18.9341 107.739 18.4328L105.442 21.7071C107.041 22.8294 109.041 23.2876 111.25 23.2876V19.2876ZM107.749 18.44C107.05 17.9424 106.67 17.3202 106.548 16.4542L102.587 17.0124C102.861 18.959 103.83 20.5612 105.431 21.6999L107.749 18.44ZM104.672 18.7306L108.69 18.5196L108.48 14.5251L104.462 14.7361L104.672 18.7306ZM106.625 16.9227C106.843 17.9868 107.413 18.9137 108.352 19.5445L110.581 16.2233C110.57 16.2158 110.568 16.2125 110.569 16.2143C110.571 16.2163 110.574 16.2192 110.575 16.2211C110.579 16.2277 110.561 16.2044 110.544 16.122L106.625 16.9227ZM108.368 19.555C109.247 20.1329 110.258 20.3441 111.26 20.3441V16.3441C110.804 16.3441 110.62 16.2485 110.566 16.2128L108.368 19.555ZM111.26 20.3441C112.212 20.3441 113.198 20.1639 114.055 19.6222L111.917 16.2414C111.904 16.2494 111.74 16.3441 111.26 16.3441V20.3441ZM114.061 19.6181C114.947 19.0529 115.639 18.124 115.657 16.8773L111.657 16.8194C111.659 16.6922 111.698 16.5363 111.784 16.3968C111.863 16.27 111.935 16.2298 111.91 16.2455L114.061 19.6181ZM115.657 16.8139C115.639 15.8043 115.172 14.942 114.408 14.3535L111.966 17.5215C111.918 17.4849 111.83 17.4009 111.757 17.2594C111.683 17.1153 111.659 16.978 111.657 16.8828L115.657 16.8139ZM114.428 14.3694C113.761 13.8408 112.928 13.5738 112.16 13.4202L111.376 17.3426C111.611 17.3895 111.771 17.4386 111.872 17.4784C111.976 17.5192 111.986 17.5372 111.946 17.5056L114.428 14.3694ZM112.159 13.4199L109.608 12.9118L108.827 16.8347L111.377 17.3428L112.159 13.4199ZM109.61 12.9121C108.389 12.6679 107.746 12.2929 107.426 11.9697L104.585 14.7853C105.671 15.8811 107.17 16.5033 108.825 16.8344L109.61 12.9121ZM107.433 11.9762C107.143 11.6817 106.96 11.2999 106.96 10.6641H102.96C102.96 12.2271 103.474 13.6542 104.579 14.7788L107.433 11.9762ZM106.96 10.6641C106.96 10.1008 107.104 9.71761 107.329 9.41671L104.126 7.0215C103.328 8.08849 102.96 9.33532 102.96 10.6641H106.96ZM107.322 9.42625C107.584 9.08017 107.99 8.75494 108.642 8.49578L107.166 4.77837C105.951 5.26069 104.906 5.99015 104.133 7.01196L107.322 9.42625ZM108.638 8.4975C109.294 8.23863 110.135 8.08097 111.202 8.08097V4.08097C109.752 4.08097 108.393 4.29404 107.17 4.77665L108.638 8.4975ZM111.202 8.08097C112.803 8.08097 113.798 8.42144 114.408 8.87065L116.78 5.64994C115.255 4.52671 113.322 4.08097 111.202 4.08097V8.08097ZM114.412 8.87402C115.032 9.32814 115.38 9.90365 115.49 10.7342L119.456 10.2104C119.207 8.33072 118.303 6.7649 116.775 5.64657L114.412 8.87402ZM128.214 6.27273H130.214V4.27273H128.214V6.27273ZM128.214 9.34091V11.3409H130.214V9.34091H128.214ZM119.345 9.34091H117.345V11.3409H119.345V9.34091ZM119.345 6.27273V4.27273H117.345V6.27273H119.345ZM121.358 2.74432V0.744318H119.358V2.74432H121.358ZM125.443 2.74432H127.443V0.744318H125.443V2.74432ZM125.616 17.3565L123.86 18.3142L123.866 18.3257L123.872 18.3371L125.616 17.3565ZM126.095 17.788L125.342 19.6409L125.352 19.6449L125.362 19.6488L126.095 17.788ZM127.399 17.8647L127.728 19.8375L127.76 19.8322L127.791 19.8259L127.399 17.8647ZM127.84 17.7784L129.797 17.3648L129.393 15.4524L127.471 15.8127L127.84 17.7784ZM128.482 20.8178L129.079 22.7268L130.815 22.1842L130.439 20.4043L128.482 20.8178ZM127.619 21.0384L127.182 19.0868L127.166 19.0904L127.15 19.0942L127.619 21.0384ZM126.268 21.2013L126.195 19.2026L126.19 19.2029L126.268 21.2013ZM123.679 20.8082L122.922 22.6596L122.928 22.6619L123.679 20.8082ZM121.962 19.4084L123.642 18.3226L123.642 18.3226L121.962 19.4084ZM121.358 17.0114L123.358 17.0246V17.0114H121.358ZM126.214 6.27273V9.34091H130.214V6.27273H126.214ZM128.214 7.34091H119.345V11.3409H128.214V7.34091ZM121.345 9.34091V6.27273H117.345V9.34091H121.345ZM119.345 8.27273H128.214V4.27273H119.345V8.27273ZM121.358 4.74432H125.443V0.744318H121.358V4.74432ZM123.443 2.74432V16.4744H127.443V2.74432H123.443ZM123.443 16.4744C123.443 17.0137 123.518 17.6883 123.86 18.3142L127.371 16.3988C127.432 16.5108 127.448 16.5875 127.449 16.5938C127.45 16.5988 127.448 16.5919 127.446 16.5709C127.445 16.55 127.443 16.5183 127.443 16.4744H123.443ZM123.872 18.3371C124.194 18.9094 124.691 19.3763 125.342 19.6409L126.848 15.9351C126.954 15.9784 127.063 16.0438 127.16 16.1312C127.256 16.2176 127.319 16.306 127.359 16.376L123.872 18.3371ZM125.362 19.6488C125.85 19.8411 126.35 19.9126 126.824 19.9126V15.9126C126.786 15.9126 126.771 15.9098 126.773 15.9101C126.775 15.9105 126.795 15.9142 126.828 15.9272L125.362 19.6488ZM126.824 19.9126C127.127 19.9126 127.429 19.8873 127.728 19.8375L127.07 15.8919C126.986 15.906 126.904 15.9126 126.824 15.9126V19.9126ZM127.791 19.8259C127.981 19.788 128.118 19.7611 128.209 19.7442L127.471 15.8127C127.357 15.8341 127.201 15.8647 127.007 15.9035L127.791 19.8259ZM125.883 18.192L126.526 21.2314L130.439 20.4043L129.797 17.3648L125.883 18.192ZM127.886 18.9089C127.759 18.9485 127.533 19.0081 127.182 19.0868L128.057 22.9899C128.447 22.9025 128.797 22.815 129.079 22.7268L127.886 18.9089ZM127.15 19.0942C126.949 19.1427 126.64 19.1866 126.195 19.2027L126.34 23.2C126.956 23.1778 127.548 23.113 128.089 22.9825L127.15 19.0942ZM126.19 19.2029C125.425 19.2327 124.855 19.1269 124.43 18.9546L122.928 22.6619C123.986 23.0905 125.142 23.2467 126.345 23.1998L126.19 19.2029ZM124.435 18.9569C124.057 18.8024 123.817 18.5927 123.642 18.3226L120.283 20.4942C120.926 21.4897 121.83 22.2132 122.922 22.6596L124.435 18.9569ZM123.642 18.3226C123.497 18.0977 123.354 17.7087 123.358 17.0246L119.358 16.9981C119.35 18.2444 119.61 19.4534 120.283 20.4942L123.642 18.3226ZM123.358 17.0114V2.74432H119.358V17.0114H123.358Z" fill="black" mask="url(#path-1-outside-1_4_14)"/>
</svg>
